<svg width="16" height="14" viewBox="0 0 16 14" fill="none" xmlns="http://www.w3.org/2000/svg">
<path d="M5.44019 4.22661L1.08466 4.84347L1.00752 4.85881C0.890739 4.88909 0.784279 4.94911 0.69901 5.03273C0.613741 5.11635 0.552718 5.22058 0.522174 5.33477C0.49163 5.44896 0.492658 5.56903 0.525154 5.68271C0.55765 5.79639 0.620449 5.8996 0.707139 5.98182L3.86251 8.98207L3.11838 13.22L3.1095 13.2934C3.10236 13.4114 3.12744 13.5291 3.18218 13.6345C3.23692 13.7399 3.31935 13.8292 3.42104 13.8933C3.52272 13.9573 3.64001 13.9938 3.76089 13.999C3.88176 14.0042 4.00189 13.978 4.10895 13.9229L8.00435 11.9223L11.8909 13.9229L11.9591 13.9536C12.0718 13.997 12.1943 14.0103 12.314 13.9921C12.4337 13.974 12.5462 13.9251 12.6402 13.8504C12.7341 13.7757 12.806 13.678 12.8486 13.5672C12.8911 13.4565 12.9027 13.3366 12.8821 13.22L12.1373 8.98207L15.2941 5.98115L15.3473 5.92447C15.4234 5.83295 15.4732 5.72337 15.4918 5.6069C15.5104 5.49043 15.4971 5.37122 15.4532 5.26142C15.4093 5.15162 15.3363 5.05515 15.2418 4.98185C15.1473 4.90855 15.0346 4.86103 14.9152 4.84413L10.5596 4.22661L8.61262 0.372094C8.55628 0.260416 8.46907 0.166374 8.36084 0.100614C8.25262 0.034853 8.12771 0 8.00026 0C7.8728 0 7.74789 0.034853 7.63967 0.100614C7.53144 0.166374 7.44423 0.260416 7.38789 0.372094L5.44019 4.22661Z" fill="#DEECFD"/>
</svg>
