<svg width="180" height="180" viewBox="0 0 180 180" fill="none" xmlns="http://www.w3.org/2000/svg">
<rect width="180" height="180" fill="white"/>
<path d="M45 180C69.8528 180 90 159.853 90 135C90 110.147 69.8528 90 45 90C20.1472 90 0 110.147 0 135C0 159.853 20.1472 180 45 180Z" fill="#2F6B75"/>
<path d="M135 180C159.853 180 180 159.853 180 135C180 110.147 159.853 90 135 90C110.147 90 90 110.147 90 135C90 159.853 110.147 180 135 180Z" fill="#94C6C3"/>
<path d="M45 90C69.8528 90 90 69.8528 90 45C90 20.1472 69.8528 0 45 0C20.1472 0 0 20.1472 0 45C0 69.8528 20.1472 90 45 90Z" fill="#94C6C3"/>
<path d="M135 90C159.853 90 180 69.8528 180 45C180 20.1472 159.853 0 135 0C110.147 0 90 20.1472 90 45C90 69.8528 110.147 90 135 90Z" fill="#2F6B75"/>
<path d="M90 167C132.526 167 167 132.526 167 90C167 47.4741 132.526 13 90 13C47.4741 13 13 47.4741 13 90C13 132.526 47.4741 167 90 167Z" fill="white"/>
<path d="M72.7793 56.2583H84.9576L106.132 108.717H106.911L128.085 56.2583H140.263V123.742H130.716V74.9087H130.099L110.483 123.644H102.559L82.9441 74.8757H82.3271V123.742H72.7793V56.2583Z" fill="#2F6B75"/>
<path d="M41.4482 123.742V56.2583H51.6831V114.977H82.4208V123.742H41.4482Z" fill="#94C6C3"/>
</svg>
