<svg width="164" height="30" viewBox="0 0 164 30" fill="none" xmlns="http://www.w3.org/2000/svg">
<path d="M0.00390625 29V1.35352H5.01367V24.8066H17.2041V29H0.00390625ZM19.876 29V8.25586H24.7559V29H19.876ZM22.3252 5.34277C21.5459 5.34277 20.8779 5.08301 20.3213 4.56348C19.7646 4.04395 19.4863 3.41927 19.4863 2.68945C19.4863 1.94727 19.7646 1.31641 20.3213 0.796875C20.8779 0.277344 21.5459 0.0175781 22.3252 0.0175781C23.0921 0.0175781 23.7539 0.277344 24.3105 0.796875C24.8672 1.31641 25.1455 1.94108 25.1455 2.6709C25.1455 3.41309 24.8672 4.04395 24.3105 4.56348C23.7539 5.08301 23.0921 5.34277 22.3252 5.34277ZM39.377 29.3711C38.2018 29.3711 37.2184 29.1732 36.4268 28.7773C35.6475 28.3691 35.0166 27.8867 34.5342 27.3301C34.0641 26.7611 33.7054 26.223 33.458 25.7158H33.1611V29H28.374V1.35352H33.2539V11.6885H33.458C33.7054 11.1937 34.0579 10.6618 34.5156 10.0928C34.9733 9.51139 35.5918 9.0166 36.3711 8.6084C37.1628 8.2002 38.1709 7.99609 39.3955 7.99609C40.9912 7.99609 42.4323 8.4043 43.7188 9.2207C45.0052 10.0371 46.0257 11.237 46.7803 12.8203C47.5472 14.4036 47.9307 16.3519 47.9307 18.665C47.9307 20.9411 47.5596 22.877 46.8174 24.4727C46.0752 26.0684 45.0547 27.2868 43.7559 28.1279C42.4694 28.9567 41.0098 29.3711 39.377 29.3711ZM38.041 25.3633C39.1172 25.3633 40.014 25.0726 40.7314 24.4912C41.4613 23.9098 42.0117 23.112 42.3828 22.0977C42.7539 21.0833 42.9395 19.9329 42.9395 18.6465C42.9395 17.36 42.7539 16.2158 42.3828 15.2139C42.0117 14.2119 41.4674 13.4264 40.75 12.8574C40.0326 12.2884 39.1296 12.0039 38.041 12.0039C36.9896 12.0039 36.099 12.276 35.3691 12.8203C34.6517 13.3646 34.1012 14.1377 33.7178 15.1396C33.3467 16.1292 33.1611 17.2982 33.1611 18.6465C33.1611 19.9824 33.3467 21.1576 33.7178 22.1719C34.1012 23.1738 34.6579 23.9593 35.3877 24.5283C36.1175 25.085 37.002 25.3633 38.041 25.3633ZM59.8242 29.4082C57.7461 29.4082 55.9525 28.9753 54.4434 28.1094C52.9342 27.2311 51.7715 25.9941 50.9551 24.3984C50.151 22.8027 49.749 20.9225 49.749 18.7578C49.749 16.6178 50.151 14.7438 50.9551 13.1357C51.7591 11.5153 52.891 10.2536 54.3506 9.35059C55.8102 8.44759 57.5296 7.99609 59.5088 7.99609C60.7829 7.99609 61.9889 8.2002 63.127 8.6084C64.2773 9.0166 65.2917 9.64746 66.1699 10.501C67.0605 11.3545 67.7594 12.443 68.2666 13.7666C68.7738 15.0778 69.0273 16.6426 69.0273 18.4609V19.9824H52.0312V16.6982H66.5967L64.3145 17.6631C64.3145 16.488 64.1351 15.4674 63.7764 14.6016C63.4176 13.7233 62.8857 13.0368 62.1807 12.542C61.4756 12.0472 60.5973 11.7998 59.5459 11.7998C58.4945 11.7998 57.5977 12.0472 56.8555 12.542C56.1133 13.0368 55.5505 13.7048 55.167 14.5459C54.7835 15.3747 54.5918 16.3024 54.5918 17.3291V19.6113C54.5918 20.873 54.8083 21.9554 55.2412 22.8584C55.6865 23.749 56.305 24.4294 57.0967 24.8994C57.9007 25.3695 58.8346 25.6045 59.8984 25.6045C60.5911 25.6045 61.222 25.5055 61.791 25.3076C62.3724 25.1097 62.8672 24.8128 63.2754 24.417C63.696 24.0088 64.0176 23.5078 64.2402 22.9141L68.8047 23.4521C68.5078 24.652 67.9574 25.7035 67.1533 26.6064C66.3617 27.4971 65.3411 28.1898 64.0918 28.6846C62.8548 29.167 61.4323 29.4082 59.8242 29.4082ZM71.6807 29V8.25586H76.4121V11.7441H76.6348C77.0059 10.5319 77.6553 9.60417 78.583 8.96094C79.5107 8.30534 80.5684 7.97754 81.7559 7.97754C82.0156 7.97754 82.3125 7.98991 82.6465 8.01465C82.9928 8.03939 83.2773 8.07031 83.5 8.10742V12.5977C83.2897 12.5234 82.9619 12.4616 82.5166 12.4121C82.0713 12.3626 81.6445 12.3379 81.2363 12.3379C80.3333 12.3379 79.5293 12.5296 78.8242 12.9131C78.1191 13.2965 77.5625 13.8223 77.1543 14.4902C76.7585 15.1582 76.5605 15.9375 76.5605 16.8281V29H71.6807Z" fill="#94C6C3"/>
<path d="M85.541 1.35352H91.6826L99.8838 21.374H100.199L108.419 1.35352H114.635V29H109.718V10H109.495L101.813 28.9072H98.2139L90.625 9.96289H90.3652V29H85.541V1.35352ZM118.643 29V1.35352H136.641V5.54688H123.652V12.9688H135.676V17.1064H123.652V24.8066H136.715V29H118.643ZM149.703 29H142.689V24.6582H149.443C151.361 24.6582 152.963 24.3118 154.249 23.6191C155.548 22.9141 156.519 21.8564 157.162 20.4463C157.818 19.0361 158.146 17.2734 158.146 15.1582C158.146 13.043 157.824 11.2865 157.181 9.88867C156.537 8.49089 155.579 7.44564 154.305 6.75293C153.031 6.04785 151.453 5.69531 149.573 5.69531H142.541V1.35352H149.87C152.616 1.35352 154.973 1.90397 156.939 3.00488C158.919 4.10579 160.44 5.68913 161.504 7.75488C162.568 9.82064 163.1 12.2884 163.1 15.1582C163.1 18.028 162.568 20.502 161.504 22.5801C160.44 24.6458 158.906 26.2354 156.902 27.3486C154.911 28.4495 152.511 29 149.703 29ZM145.324 1.35352V29H140.314V1.35352H145.324Z" fill="#2F6B75"/>
</svg>
