<svg width="12" height="9" viewBox="0 0 12 9" fill="none" xmlns="http://www.w3.org/2000/svg">
<path d="M5.35259 8.60053C5.4061 8.6727 5.47771 8.73171 5.56124 8.77248C5.64477 8.81324 5.73772 8.83454 5.83209 8.83454C5.92645 8.83454 6.0194 8.81324 6.10293 8.77248C6.18646 8.73171 6.25807 8.6727 6.31159 8.60053L11.5616 1.55886C11.6224 1.47764 11.658 1.38251 11.6646 1.2838C11.6713 1.1851 11.6486 1.08659 11.5992 0.998989C11.5498 0.911386 11.4754 0.838036 11.3843 0.786908C11.2931 0.73578 11.1886 0.708829 11.0821 0.708985H0.582086C0.475828 0.709393 0.3717 0.736689 0.2809 0.78794C0.190099 0.83919 0.116063 0.912456 0.066751 0.999856C0.0174394 1.08726 -0.00528101 1.18549 0.00103297 1.28398C0.00734694 1.38248 0.0424565 1.47751 0.102586 1.55886L5.35259 8.60053Z" fill="#94C6C3"/>
</svg>
