<svg width="12" height="9" viewBox="0 0 12 9" fill="none" xmlns="http://www.w3.org/2000/svg">
<path d="M5.35259 8.59955C5.4061 8.67172 5.47771 8.73073 5.56124 8.7715C5.64477 8.81227 5.73772 8.83357 5.83209 8.83357C5.92645 8.83357 6.0194 8.81227 6.10293 8.7715C6.18646 8.73073 6.25807 8.67172 6.31159 8.59955L11.5616 1.55788C11.6224 1.47666 11.658 1.38153 11.6646 1.28283C11.6713 1.18412 11.6486 1.08562 11.5992 0.998013C11.5498 0.91041 11.4754 0.837059 11.3843 0.785931C11.2931 0.734803 11.1886 0.707853 11.0821 0.708008H0.582086C0.475828 0.708416 0.3717 0.735713 0.2809 0.786963C0.190099 0.838214 0.116063 0.911479 0.066751 0.99888C0.0174394 1.08628 -0.00528101 1.18451 0.00103297 1.283C0.00734694 1.3815 0.0424565 1.47653 0.102586 1.55788L5.35259 8.59955Z" fill="#2F6B75"/>
</svg>
